<svg width="68" height="68" viewBox="0 0 68 68" fill="none" xmlns="http://www.w3.org/2000/svg">
<g clip-path="url(#clip0_2_38)">
<path d="M24.5556 3.77778C24.5556 3.77778 24.5556 0 28.3333 0C32.1111 0 32.1111 3.77778 32.1111 3.77778V7.55556C32.1111 7.55556 32.1111 11.3333 28.3333 11.3333C24.5556 11.3333 24.5556 7.55556 24.5556 7.55556V3.77778ZM7.55556 24.5556C7.55556 24.5556 11.3333 24.5556 11.3333 28.3333C11.3333 32.1111 7.55556 32.1111 7.55556 32.1111H3.77778C3.77778 32.1111 0 32.1111 0 28.3333C0 24.5556 3.77778 24.5556 3.77778 24.5556H7.55556ZM14.8693 11.4146C14.8693 11.4146 17.5402 14.0854 14.8693 16.7563C12.1984 19.4272 9.52756 16.7563 9.52756 16.7563L6.85478 14.0873C6.85478 14.0873 4.18389 11.4164 6.85478 8.74367C9.52756 6.07278 12.1984 8.74367 12.1984 8.74367L14.8693 11.4146ZM47.141 16.7563C47.141 16.7563 44.4701 19.4272 41.7992 16.7563C39.1283 14.0854 41.7992 11.4146 41.7992 11.4146L44.4701 8.74367C44.4701 8.74367 47.141 6.07278 49.8119 8.74367C52.4828 11.4146 49.8119 14.0854 49.8119 14.0854L47.141 16.7563Z" fill="#FFAC33"/>
<path d="M28.3333 43.4445C36.679 43.4445 43.4445 36.679 43.4445 28.3333C43.4445 19.9877 36.679 13.2222 28.3333 13.2222C19.9877 13.2222 13.2222 19.9877 13.2222 28.3333C13.2222 36.679 19.9877 43.4445 28.3333 43.4445Z" fill="#FFAC33"/>
<path d="M53.3101 24.1778C51.7934 24.1778 50.3351 24.4026 48.9581 24.82C47.3299 20.2697 42.9118 17 37.6985 17C32.1092 17 27.4286 20.7608 26.1328 25.8306C24.7002 24.7604 22.9607 24.1808 21.1726 24.1778C16.6071 24.1778 12.9087 27.7931 12.9087 32.2528C12.9087 33.3351 13.1354 34.3664 13.5301 35.3109C12.7301 35.0809 11.9031 34.9577 11.0708 34.9444C5.99914 34.9444 1.88892 38.9602 1.88892 43.9167C1.88892 48.8731 5.99914 52.8889 11.0708 52.8889H53.3082C61.4229 52.8889 68 46.4629 68 38.5333C68 30.6038 61.4229 24.1778 53.3101 24.1778Z" fill="#E1E8ED"/>
<path d="M22.6648 64.1485L22.4513 57.6867L17.0321 60.9129C16.4205 61.2393 15.9128 61.7308 15.5668 62.3316C15.2209 62.9323 15.0505 63.6182 15.0752 64.311C15.1146 65.3172 15.5477 66.2678 16.2811 66.9578C17.0146 67.6478 17.9898 68.0221 18.9966 68C19.4916 67.9922 19.9802 67.886 20.4337 67.6874C20.8872 67.4888 21.2967 67.2019 21.6382 66.8433C21.9796 66.4848 22.2463 66.0619 22.4225 65.5992C22.5988 65.1365 22.6811 64.6434 22.6648 64.1485ZM9.48222 61.2397L9.26689 54.7778L3.84767 58.004C3.23604 58.3304 2.72835 58.8219 2.38239 59.4227C2.03642 60.0235 1.86609 60.7093 1.89078 61.4021C1.93016 62.4084 2.36324 63.3589 3.0967 64.0489C3.83017 64.7389 4.80533 65.1132 5.81211 65.0911C6.30732 65.0836 6.79608 64.9775 7.24984 64.779C7.7036 64.5806 8.11327 64.2937 8.45494 63.9351C8.7966 63.5766 9.06341 63.1536 9.23979 62.6908C9.41617 62.228 9.49859 61.7347 9.48222 61.2397ZM35.9267 62.2597L35.7132 55.7978L30.294 59.024C29.6824 59.3504 29.1747 59.8419 28.8287 60.4427C28.4828 61.0435 28.3124 61.7293 28.3371 62.4221C28.3765 63.4284 28.8096 64.3789 29.543 65.0689C30.2765 65.7589 31.2517 66.1332 32.2584 66.1111C32.7535 66.1033 33.2421 65.9971 33.6956 65.7985C34.1491 65.5999 34.5586 65.313 34.9 64.9545C35.2415 64.5959 35.5082 64.173 35.6844 63.7103C35.8607 63.2476 35.943 62.7545 35.9267 62.2597ZM47.2184 64.1485L47.005 57.6867L41.5858 60.9129C40.9745 61.2395 40.4672 61.7312 40.1216 62.3319C39.776 62.9327 39.6059 63.6184 39.6308 64.311C39.6702 65.3172 40.1032 66.2678 40.8367 66.9578C41.5702 67.6478 42.5453 68.0221 43.5521 68C44.0471 67.9922 44.5355 67.886 44.989 67.6874C45.4424 67.4887 45.8518 67.2018 46.1931 66.8432C46.5344 66.4847 46.8008 66.0617 46.9769 65.5991C47.153 65.1364 47.2351 64.6433 47.2184 64.1485ZM58.5914 61.2397L58.3761 54.7778L52.9569 58.004C52.3456 58.3306 51.8383 58.8223 51.4927 59.423C51.1471 60.0238 50.977 60.7095 51.0019 61.4021C51.0398 62.4089 51.4725 63.3602 52.2063 64.0505C52.94 64.7409 53.916 65.1146 54.9232 65.0911C55.4183 65.0833 55.9068 64.9771 56.3604 64.7785C56.8139 64.5799 57.2234 64.293 57.5648 63.9345C57.9063 63.5759 58.1729 63.153 58.3492 62.6903C58.5255 62.2277 58.6078 61.7345 58.5914 61.2397Z" fill="#5DADEC"/>
</g>
<defs>
<clipPath id="clip0_2_38">
<rect width="68" height="68" fill="white"/>
</clipPath>
</defs>
</svg>
