<svg width="68" height="68" viewBox="0 0 68 68" fill="none" xmlns="http://www.w3.org/2000/svg">
<path d="M15.8312 41.7191C15.7091 41.6713 15.5816 41.65 15.4487 41.6606C14.6891 41.7138 10.7206 45.2519 9.67937 47.8072C8.97281 49.5444 9.81218 51.5419 11.5547 52.2485C12.3932 52.5874 13.3318 52.5804 14.1652 52.2289C14.9985 51.8775 15.6587 51.2102 16.0012 50.3731C16.7769 48.4447 16.9947 42.1972 15.8312 41.7191ZM22.3444 54.2194C22.2222 54.1663 22.0894 54.145 21.9566 54.1556C21.1969 54.2088 17.2284 57.7469 16.1872 60.3075C15.4806 62.0447 16.32 64.0422 18.0625 64.7488C18.901 65.0877 19.8396 65.0807 20.673 64.7293C21.5063 64.3778 22.1665 63.7105 22.5091 62.8735C23.2953 60.9397 23.5078 54.6922 22.3444 54.2194ZM35.4397 43.9185C35.3175 43.8706 35.19 43.8494 35.0572 43.86C34.2975 43.9131 30.3291 47.4513 29.2878 50.0066C28.5812 51.7491 29.4206 53.7413 31.1631 54.4478C32.9056 55.1544 34.8978 54.315 35.6044 52.5725C36.3906 50.6441 36.6031 44.3966 35.4397 43.9185ZM42.6594 55.2925C42.5372 55.2447 42.4097 55.2235 42.2769 55.2341C41.5172 55.2872 37.5434 58.8253 36.5022 61.3806C35.7956 63.1178 36.635 65.1153 38.3775 65.8219C40.12 66.5285 42.1175 65.6891 42.8241 63.9466C43.6103 62.0181 43.8228 55.7706 42.6594 55.2925ZM53.9431 44.4497C53.8209 44.4019 53.6881 44.3806 53.5553 44.3913C52.7956 44.4444 48.8219 47.9825 47.7806 50.5378C47.0741 52.2803 47.9134 54.2725 49.6559 54.9791C51.3984 55.6856 53.3906 54.8463 54.0972 53.1038C54.8887 51.17 55.1012 44.9225 53.9431 44.4497Z" fill="#70B2E2"/>
<path d="M57.3325 15.9322C57.3272 15.895 57.3325 15.8632 57.3325 15.826C57.3325 10.9969 53.4172 7.07628 48.5828 7.07628C47.9612 7.07628 47.3556 7.14534 46.7712 7.26753C45.0394 3.0494 40.8956 0.0744019 36.0506 0.0744019C32.4116 0.0744019 29.1709 1.75315 27.0459 4.37221C25.6361 3.65275 24.0759 3.27771 22.4931 3.27784C17.2603 3.27784 12.9572 7.26753 12.4578 12.3675C6.76281 12.6703 2.19937 17.3347 2.125 23.1253C2.04531 29.155 6.87437 34.1063 12.9041 34.186C13.3716 34.1913 13.8337 34.1594 14.2853 34.1063C16.6175 39.0203 21.6166 42.4203 27.4178 42.4203C30.9187 42.4203 34.1275 41.1825 36.635 39.1213C38.5528 40.5397 40.9169 41.3897 43.4881 41.3897C48.7581 41.3897 53.1941 37.8516 54.5753 33.0278C55.4466 33.3147 56.3709 33.4794 57.3378 33.4794C62.1828 33.4794 66.1141 29.5535 66.1141 24.7032C66.1087 19.8582 62.1775 15.9322 57.3325 15.9322Z" fill="#E3EBEE"/>
<path d="M62.4856 17.6057C64.4725 19.6138 63.07 24.2197 61.6994 25.7178C59.0113 28.6663 54.0706 27.9757 52.0891 27.5507C51.5525 27.4338 51.4675 27.4763 51.2922 27.5825C51.1381 27.6782 51.0638 27.8322 50.8938 28.1935C50.2563 29.5694 48.6094 32.2363 45.1297 33.3094C41.5066 34.4303 38.0853 32.725 36.4863 31.705C35.8806 31.3172 35.8541 31.3119 35.5778 31.3119C35.3016 31.3119 35.0253 31.5191 34.6959 31.7794C33.2509 32.9163 29.9466 34.9244 24.8519 34.6322C19.8581 34.3453 17 31.2641 16.0225 29.6863C15.8366 29.3835 15.6294 29.1285 15.4009 29.1019C15.1353 29.0753 14.8378 29.3516 14.6094 29.5694C12.4844 31.6413 5.80125 32.2575 3.58063 28.7353C5.83313 32.3532 9.31813 34.1435 12.8934 34.186C13.3609 34.1913 13.8231 34.1594 14.2747 34.1063C16.6069 39.0203 21.6059 42.4203 27.4072 42.4203C30.9081 42.4203 34.1169 41.1825 36.6244 39.1213C38.5422 40.5397 40.9062 41.3897 43.4775 41.3897C48.7475 41.3897 53.1834 37.8516 54.5647 33.0278C55.4359 33.3147 56.3603 33.4794 57.3272 33.4794C62.1722 33.4794 66.1034 29.5535 66.1034 24.7032C66.1088 22.1213 64.8072 19.21 62.4856 17.6057Z" fill="#B9CDD2"/>
</svg>
