<svg width="87" height="87" viewBox="0 0 87 87" fill="none" xmlns="http://www.w3.org/2000/svg">
<path d="M25.4271 28.5129C18.8273 36.9954 18.9429 52.064 27.3778 59.5338C36.9546 68.0095 50.4328 67.9212 58.9085 60.1251C69.0698 50.7726 68.4853 35.2078 59.4998 26.3923C50.4668 17.5291 34.3242 17.0669 25.4271 28.5129Z" fill="#FCC11A"/>
<path d="M36.0234 25.6038C33.4134 24.4483 30.5587 27.5953 29.3149 29.7431C28.0711 31.8977 26.9156 36.1186 29.5664 37.1993C32.2172 38.2732 34.1203 36.4516 36.0302 33.3047C37.9266 30.1577 39.0073 26.9292 36.0234 25.6038Z" fill="#FEE269"/>
<path d="M42.8203 13.7773C42.1882 14.9599 42.3989 15.8707 43.6563 16.1698C44.9137 16.4688 52.7369 17.7398 53.3962 17.7806C54.3546 17.8418 54.708 17.1213 54.5925 16.2853C54.4702 15.4493 52.5602 3.73829 52.3835 2.66438C52.2068 1.59047 51.0717 0.516567 49.991 1.95071C48.9103 3.38485 43.2961 12.8869 42.8203 13.7773ZM63.075 21.9063C61.8448 22.287 61.8787 23.0414 62.538 23.9998C63.1973 24.9581 67.7377 31.8841 68.1523 32.3667C68.5737 32.8425 69.2873 32.9648 69.8855 32.2444C70.4836 31.5307 77.9466 21.0635 78.4903 20.411C79.3875 19.3371 78.8505 18.202 77.4776 18.5555C76.4309 18.8341 63.8498 21.6684 63.075 21.9063ZM72.4547 42.0455C71.5711 41.5425 70.4224 41.6852 70.1234 42.8203C69.8243 43.9554 68.5125 52.2 68.3902 52.9205C68.2678 53.6409 68.8116 54.3546 69.702 54.1779C70.5923 54.0012 82.9219 52.1728 83.7443 51.9689C85.1784 51.6087 85.6542 50.1745 84.1657 49.1006C83.2005 48.4005 73.2907 42.5213 72.4547 42.0455ZM62.5924 61.5797C63.544 61.0699 64.3868 61.4573 64.6247 62.538C64.8626 63.612 67.493 74.6093 67.9144 76.6416C68.1251 77.6611 66.956 78.4971 66.0045 77.899C65.0461 77.3009 54.6605 70.0622 53.9944 69.4709C53.036 68.6348 53.7021 67.7648 54.1711 67.3231C55.1227 66.4191 61.6952 62.0623 62.5924 61.5797ZM33.6717 67.6153C32.4687 67.4998 32.1152 68.5737 32.2987 69.5252C32.4755 70.4836 34.2698 82.6024 34.3922 83.5064C34.5689 84.8182 35.9487 85.362 36.8391 84.0434C37.7295 82.7248 43.8738 72.8965 44.37 71.9721C45.2672 70.3001 44.6079 69.9398 43.7107 69.5252C42.8203 69.1106 34.9291 67.7377 33.6717 67.6153ZM16.4688 53.6953C17.3048 52.3223 18.3787 52.6826 19.1604 53.9944C19.6905 54.8916 24.1765 60.9272 24.5979 61.5797C25.0193 62.239 25.196 63.4896 23.8842 63.7887C22.5588 64.0945 11.8673 66.9016 10.1953 67.2007C8.52328 67.4998 7.56492 66.188 8.63883 64.7538C9.26414 63.911 15.993 54.477 16.4688 53.6953ZM14.1987 43.2961C15.728 43.9758 16.4484 43.7311 16.7679 42.6368C17.1893 41.2027 18.4399 34.6301 18.5011 33.1348C18.5419 32.1628 18.1409 31.2248 16.6455 31.4627C15.1502 31.7006 4.39758 33.2027 3.02461 33.6785C1.42734 34.2359 1.54289 35.9895 2.6032 36.5468C3.86062 37.2061 13.118 42.8203 14.1987 43.2961ZM32.7813 18.202C33.6445 17.5156 33.3795 16.53 32.6046 15.9931C31.8298 15.4561 22.2326 8.51649 21.0159 7.56493C19.942 6.72891 18.6234 7.02797 18.9837 8.93789C19.242 10.3109 22.3005 22.3277 22.5112 23.157C22.7491 24.1153 23.4696 24.5911 24.3056 23.993C25.128 23.4016 31.8841 18.9225 32.7813 18.202Z" fill="#FFA722"/>
</svg>
